<svg width="26" height="29" viewBox="0 0 26 29" fill="none" xmlns="http://www.w3.org/2000/svg">
<g clip-path="url(#clip0_117_4484)" filter="url(#filter0_d_117_4484)">
<path d="M10.366 10.682C11.3043 12.3305 12.6695 13.6957 14.318 14.634L15.202 13.396C15.3442 13.1969 15.5543 13.0569 15.7928 13.0023C16.0313 12.9478 16.2814 12.9825 16.496 13.1C17.9103 13.8729 19.4722 14.3378 21.079 14.464C21.3298 14.4839 21.5638 14.5975 21.7345 14.7823C21.9052 14.9671 22 15.2094 22 15.461V19.923C22.0001 20.1706 21.9083 20.4094 21.7424 20.5932C21.5765 20.777 21.3483 20.8927 21.102 20.918C20.572 20.973 20.038 21 19.5 21C10.94 21 4 14.06 4 5.5C4 4.962 4.027 4.428 4.082 3.898C4.10725 3.6517 4.22298 3.42352 4.40679 3.25763C4.5906 3.09175 4.82941 2.99995 5.077 3H9.539C9.79056 2.99997 10.0329 3.09475 10.2177 3.26545C10.4025 3.43615 10.5161 3.67022 10.536 3.921C10.6622 5.52779 11.1271 7.08968 11.9 8.504C12.0175 8.71856 12.0522 8.96874 11.9977 9.2072C11.9431 9.44565 11.8031 9.65584 11.604 9.798L10.366 10.682ZM7.844 10.025L9.744 8.668C9.20478 7.50409 8.83535 6.26884 8.647 5H6.01C6.004 5.166 6.001 5.333 6.001 5.5C6 12.956 12.044 19 19.5 19C19.667 19 19.834 18.997 20 18.99V16.353C18.7312 16.1646 17.4959 15.7952 16.332 15.256L14.975 17.156C14.4287 16.9437 13.898 16.6931 13.387 16.406L13.329 16.373C11.3676 15.2567 9.74328 13.6324 8.627 11.671L8.594 11.613C8.30691 11.102 8.05628 10.5713 7.844 10.025Z" fill="white"/>
</g>
<defs>
<filter id="filter0_d_117_4484" x="-3" y="0" width="32" height="32" filterUnits="userSpaceOnUse" color-interpolation-filters="sRGB">
<feFlood flood-opacity="0" result="BackgroundImageFix"/>
<feColorMatrix in="SourceAlpha" type="matrix" values="0 0 0 0 0 0 0 0 0 0 0 0 0 0 0 0 0 0 127 0" result="hardAlpha"/>
<feOffset dy="4"/>
<feGaussianBlur stdDeviation="2"/>
<feComposite in2="hardAlpha" operator="out"/>
<feColorMatrix type="matrix" values="0 0 0 0 0 0 0 0 0 0 0 0 0 0 0 0 0 0 0.25 0"/>
<feBlend mode="normal" in2="BackgroundImageFix" result="effect1_dropShadow_117_4484"/>
<feBlend mode="normal" in="SourceGraphic" in2="effect1_dropShadow_117_4484" result="shape"/>
</filter>
<clipPath id="clip0_117_4484">
<rect width="24" height="24" fill="white" transform="translate(1)"/>
</clipPath>
</defs>
</svg>
