<svg width="108" height="40" viewBox="0 0 108 40" fill="none" xmlns="http://www.w3.org/2000/svg">
<circle cx="88" cy="20" r="19.5" fill="#3B3937" stroke="#505050"/>
<path fill-rule="evenodd" clip-rule="evenodd" d="M78.233 19.2099C83.4824 16.701 86.9828 15.047 88.7343 14.2479C93.735 11.9662 94.7741 11.5699 95.4514 11.5568C95.6003 11.5539 95.9334 11.5944 96.1491 11.7864C96.3313 11.9486 96.3814 12.1676 96.4054 12.3214C96.4294 12.4751 96.4593 12.8253 96.4355 13.099C96.1645 16.2224 94.992 23.8022 94.3954 27.3005C94.143 28.7807 93.646 29.277 93.1648 29.3256C92.1191 29.4312 91.3251 28.5675 90.3123 27.8392C88.7274 26.6996 87.8321 25.9902 86.2937 24.8781C84.5159 23.5929 85.6684 22.8866 86.6815 21.7322C86.9467 21.4301 91.5541 16.8329 91.6432 16.4159C91.6544 16.3638 91.6647 16.1693 91.5595 16.0667C91.4542 15.964 91.2988 15.9991 91.1866 16.0271C91.0277 16.0666 88.4959 17.9023 83.5912 21.5342C82.8726 22.0755 82.2216 22.3393 81.6384 22.3254C80.9955 22.3102 79.7587 21.9267 78.8393 21.5988C77.7116 21.1967 76.8154 20.9841 76.8934 20.3012C76.9341 19.9455 77.3806 19.5817 78.233 19.2099Z" fill="white"/>
<circle cx="54" cy="20" r="19.5" fill="#3B3937" stroke="#505050"/>
<circle cx="20" cy="20" r="19.5" fill="#3B3937" stroke="#505050"/>
<g clip-path="url(#clip0_7451_1169)">
<path d="M28.5856 15.6711C28.7122 15.2763 28.5856 15 27.9947 15H26.0251C25.5186 15 25.2935 15.25 25.1669 15.5263C25.1669 15.5263 24.1681 17.8158 22.7472 19.2895C22.2829 19.7237 22.0859 19.8553 21.8327 19.8553C21.7061 19.8553 21.5232 19.7237 21.5232 19.3289V15.6711C21.5232 15.1974 21.3825 15 20.9605 15H17.8654C17.5559 15 17.3589 15.2237 17.3589 15.4211C17.3589 15.8684 18.0624 15.9737 18.1468 17.2105V19.921C18.1468 20.5132 18.0342 20.6184 17.781 20.6184C17.1198 20.6184 15.4878 18.3289 14.5312 15.6974C14.3342 15.2105 14.1513 15 13.6449 15H11.6753C11.1125 15 11 15.25 11 15.5263C11 16.0132 11.6612 18.4342 14.1091 21.6316C15.7411 23.8158 18.0342 25 20.1164 25C21.3685 25 21.5232 24.7368 21.5232 24.2895V22.6316C21.5232 22.1053 21.6358 22 22.0437 22C22.3392 22 22.8316 22.1316 23.9993 23.1842C25.3358 24.4342 25.5608 25 26.3065 25H28.2761C28.8388 25 29.1202 24.7368 28.9513 24.2237C28.7685 23.7105 28.1354 22.9605 27.2913 22.0658C26.827 21.5526 26.1377 21.0132 25.9407 20.7368C25.6453 20.3816 25.7297 20.2237 25.9407 19.921C25.9407 19.9079 28.3464 16.75 28.5856 15.6711Z" fill="white" stroke="white" stroke-width="0.5"/>
</g>
<defs>
<clipPath id="clip0_7451_1169">
<rect width="22" height="22" fill="white" transform="translate(9 9)"/>
</clipPath>
</defs>
</svg>
